HIERARCHY
ROOT simHips
{
  OFFSET 87.347 99.8088 105.122
  CHANNELS 6 Xposition Yposition Zposition Zrotation Xrotation Yrotation
  JOINT simSpine
  {
    OFFSET -0.000355721 21.3001 -0.016921
    CHANNELS 3 Zrotation Xrotation Yrotation
    JOINT simLeftArm
    {
      OFFSET 13.5181 21.3012 0
      CHANNELS 3 Zrotation Xrotation Yrotation
      JOINT simLeftForeArm
      {
        OFFSET 24.5783 0 0
        CHANNELS 3 Zrotation Xrotation Yrotation
        JOINT simLeftHand
        {
          OFFSET 24.5783 0 0
          CHANNELS 3 Zrotation Xrotation Yrotation
          End Site
          {
            OFFSET 7.32568 1.52588e-05 0.0169305
          }
        }
      }
    }
    JOINT simHead
    {
      OFFSET 0 27.4458 -0.00489235
      CHANNELS 3 Zrotation Xrotation Yrotation
      End Site
      {
        OFFSET 0 0 0
      }
    }
    JOINT simRightArm
    {
      OFFSET -13.5174 21.3012 0
      CHANNELS 3 Zrotation Xrotation Yrotation
      JOINT simRightForeArm
      {
        OFFSET -24.5783 0 0
        CHANNELS 3 Zrotation Xrotation Yrotation
        JOINT simRightHand
        {
          OFFSET -24.5783 0 0
          CHANNELS 3 Zrotation Xrotation Yrotation
          End Site
          {
            OFFSET -7.32568 1.52588e-05 0.0169305
          }
        }
      }
    }
  }
  JOINT simRightUpLeg
  {
    OFFSET -8.44614 -9.41038 0.835684
    CHANNELS 3 Zrotation Xrotation Yrotation
    JOINT simRightLeg
    {
      OFFSET 0 -40.9639 0
      CHANNELS 3 Zrotation Xrotation Yrotation
      JOINT simRightFoot
      {
        OFFSET 0 -40.9639 0
        CHANNELS 3 Zrotation Xrotation Yrotation
        End Site
        {
          OFFSET 0.50614 -9.67405 14.6709
        }
      }
    }
  }
  JOINT simLeftUpLeg
  {
    OFFSET 8.44614 -9.41038 0.835684
    CHANNELS 3 Zrotation Xrotation Yrotation
    JOINT simLeftLeg
    {
      OFFSET 0 -40.9639 0
      CHANNELS 3 Zrotation Xrotation Yrotation
      JOINT simLeftFoot
      {
        OFFSET 0 -40.9639 0
        CHANNELS 3 Zrotation Xrotation Yrotation
        End Site
        {
          OFFSET -0.50614 -9.67405 14.6709
        }
      }
    }
  }
}
MOTION
Frames:	11
Frame Time:	0.0333333
87.347 99.8088 105.122 1.70755e-06 0 -0 -1.70755e-06 0 -0 -6.83019e-06 -1.70755e-06 -1.53679e-05 6.93691e-06 1.70755e-06 2.5054e-05 -4.60237e-07 7.77797e-14 -9.68603e-06 0 0 -0 6.83019e-06 -8.53773e-07 5.12264e-06 -6.83019e-06 -5.97642e-06 -1.49954e-05 -8.53774e-07 6.83019e-06 1.0353e-05 0.0690044 0.535724 -0.000356247 1.09705e-05 0.103767 -0.00975339 -0.0689986 -0.639491 -0.00040267 0.890506 -0.983537 -0.000481356 0.000109941 2.07814 -0.00481532 -0.890697 -1.09455 -0.0117213 
87.1465 99.8151 105.032 0.0121383 -0.289167 -0.100414 0.0463595 0.196963 0.090772 -0.117467 -1.09381 -0.144807 0.817224 0.0948368 -1.96683 -0.139482 -1.24667 0.647748 -0.209991 0.54042 0.100728 0.132458 -0.398847 0.0831957 -0.716093 -0.142277 1.15638 -0.361712 -0.632156 -0.0671975 0.199031 1.19486 0.0286264 0.000863748 -0.349444 -0.00975355 -0.181251 -0.544541 0.0691433 1.01394 -0.708816 0.0628353 0.0147649 2.07621 0.0195649 -1.09838 -0.983607 0.0177428 
86.923 99.8165 104.913 0.0423052 -0.54351 -0.296629 0.108294 0.354795 0.154868 -0.247495 -2.81351 -0.199067 1.91508 0.17786 -4.60145 0.270468 -1.74675 1.173 -0.517867 1.12801 0.361619 0.246707 -1.00557 0.302441 -1.79388 -0.384631 2.90201 -0.552208 -2.76758 -0.147252 0.30765 1.18436 0.339358 0.0122213 -0.136789 -0.0097534 -0.32358 -0.479987 -0.0508075 1.24469 -0.723043 0.328671 -0.19859 2.53126 0.0453087 -1.09679 -1.00036 -0.0536014 
86.6865 99.8226 104.777 0.0456242 -0.847969 -0.479236 0.246095 0.558154 0.155957 -0.492758 -4.70141 -0.265204 3.24826 0.210638 -7.79352 1.07524 -3.20288 1.55692 -0.937279 1.81647 0.729221 0.275889 -1.72766 0.697313 -3.15365 -0.740369 5.1168 -0.640437 -5.71912 -0.0994403 0.467982 1.26136 0.479188 0.00850562 -0.0186722 -0.00975337 -0.501483 -0.369964 -0.0121222 1.57237 -0.882651 0.470539 -0.526663 3.35592 0.0900553 -1.09122 -1.16022 -0.0393075 
86.4536 99.8239 104.611 0.0574175 -1.16255 -0.728253 0.487322 0.765399 0.304031 -1.07595 -7.31957 -0.319076 4.95424 0.143991 -11.8797 1.7344 -4.38048 1.03393 -1.57439 2.51355 1.13532 0.422962 -2.56573 0.989334 -5.02038 -1.32174 8.18218 -0.77637 -8.59961 0.240161 0.623008 1.47978 0.71111 -0.020145 0.00743176 -0.00975337 -0.59055 -0.340845 0.017574 1.88611 -1.05593 0.550018 -0.854251 4.18044 0.144901 -1.0684 -1.26475 0.0871242 
86.1968 99.8233 104.38 0.0494672 -1.52529 -0.941623 0.727607 1.06176 0.417757 -2.1395 -10.1836 -0.459965 7.14796 -0.122136 -17.1632 3.35302 -5.73413 1.11989 -2.08451 3.27231 1.53344 0.799552 -3.11412 1.278 -7.35875 -2.20868 12.074 -1.70062 -12.0091 0.273501 0.810505 1.65467 0.870475 -0.0522649 0.0845685 -0.00975338 -0.687595 -0.263868 0.0696873 2.22846 -1.17692 0.824881 -1.14505 4.90387 0.197056 -1.1791 -1.13159 -0.0161901 
85.9246 99.8189 104.101 0.0553371 -1.91932 -1.03856 0.922826 1.37153 0.489024 -3.60766 -13.0296 -0.790923 9.6276 -0.676036 -23.2224 4.57517 -7.32175 0.904624 -2.40683 4.06493 1.83652 1.52923 -3.85236 1.55588 -10.0068 -3.4407 16.5701 -2.90612 -14.8835 0.385376 0.993922 1.9507 0.969698 -0.0859575 -0.011299 -0.00975337 -0.786605 -0.148398 0.0937246 2.59539 -1.36238 0.835312 -1.48818 5.72572 0.270035 -1.24967 -0.927928 0.00236201 
85.6641 99.7901 103.74 0.0531252 -2.3103 -1.12457 1.21646 1.73559 0.572886 -5.49666 -15.2799 -1.04574 12.5517 -1.69971 -30.5712 4.90371 -9.52968 1.85422 -2.88619 4.81851 2.09396 2.85864 -4.95977 1.81152 -13.0792 -5.20354 21.9448 -3.93803 -19.2827 0.64462 1.16964 2.05984 1.2269 -0.0962009 0.13032 -0.0097534 -0.979185 -0.0827338 -0.0340166 3.13761 -2.04162 0.954501 -2.14952 7.41185 0.360523 -1.24482 -1.09936 -0.103078 
85.4216 99.7534 103.285 0.0745179 -2.7921 -1.16142 1.49942 2.32478 0.622999 -8.12625 -17.8525 -1.75791 15.4132 -3.14016 -38.1085 4.8743 -10.9551 1.76701 -3.26114 5.54218 2.27869 4.54678 -6.21804 2.20107 -16.2972 -7.48831 27.8236 -5.4006 -22.767 1.35074 1.29208 2.38519 1.36878 -0.0938009 -0.035914 -0.00975337 -1.05204 0.164302 -0.112557 3.68593 -2.78783 1.0309 -2.88671 9.27377 0.486557 -1.25858 -1.16733 -0.215286 
85.2207 99.711 102.72 0.0683542 -3.36187 -1.20044 1.89707 3.12568 0.791184 -12.0472 -20.1021 -3.27732 18.181 -5.03152 -45.9168 5.55283 -12.6392 2.047 -3.63788 6.33334 2.4279 6.49526 -7.21238 2.5821 -19.7023 -10.4954 34.4498 -8.73512 -23.8992 1.00077 1.40486 2.62724 1.51248 -0.0827562 -0.00877341 -0.00975337 -1.4588 0.251693 -0.0864914 4.23884 -3.59747 0.984829 -3.6958 11.2837 0.656387 -1.05934 -1.11155 -0.169369 
85.0483 99.6782 102.053 0.0969341 -3.88292 -1.22691 2.35341 4.05417 1.00362 -16.7509 -21.682 -4.96162 20.8644 -7.47553 -54.2804 5.8064 -13.8356 2.2714 -4.07988 7.15017 2.58844 9.32817 -8.82525 3.4435 -22.9613 -14.1049 41.393 -9.55003 -25.7031 1.61529 1.48079 2.72408 1.50259 -0.0975169 0.0595416 -0.00153605 -1.03565 0.599685 -0.0310851 4.69602 -4.48345 1.157 -4.46196 13.1715 0.849225 -0.363136 -0.698846 -0.35755 
